<?xml version="1.0" encoding="iso-8859-1"?>
<!-- Generator: Adobe Illustrator 19.0.0, SVG Export Plug-In . SVG Version: 6.00 Build 0)  -->
<svg version="1.1" id="Layer_1" xmlns="http://www.w3.org/2000/svg" xmlns:xlink="http://www.w3.org/1999/xlink" x="0px" y="0px"
	 viewBox="0 0 511.999 511.999" style="enable-background:new 0 0 511.999 511.999;" xml:space="preserve">
<g>
	<g>
		<circle cx="456.62" cy="191.81" r="10"/>
	</g>
</g>
<g>
	<g>
		<circle cx="192.17" cy="249.87" r="10"/>
	</g>
</g>
<g>
	<g>
		<path d="M482.208,78.413h-77.765c-4.757-27.359-28.657-48.233-57.356-48.233s-52.599,20.874-57.356,48.233h-77.766
			c-16.428,0-29.792,13.365-29.792,29.792v50.36H126.52c5.507-7.743,8.759-17.196,8.759-27.4c0-26.137-21.264-47.401-47.4-47.401
			c-26.138,0-47.401,21.264-47.401,47.401c0,13.486,5.671,25.665,14.742,34.305C22.802,178.822,0,210.089,0,246.442v74.478
			c0,22.642,17.607,41.338,40.153,43.734v97.163H15.136c-5.522,0-10,4.478-10,10c0,5.522,4.478,10,10,10h275.39
			c0.024,0,0.049,0.003,0.073,0.003c0.025,0,0.05-0.003,0.074-0.003h119.483c0.025,0,0.05,0.003,0.074,0.003
			c0.024,0,0.049-0.003,0.073-0.003h82.261c5.522,0,10-4.478,10-10c0-5.522-4.478-10-10-10h-75.141l-28.655-85.377h93.439
			c16.428,0,29.792-13.364,29.792-29.792V108.205C512,91.778,498.636,78.413,482.208,78.413z M347.087,50.18
			c17.623,0,32.5,11.986,36.907,28.233H310.18C314.587,62.166,329.464,50.18,347.087,50.18z M87.878,103.764
			c15.108,0,27.4,12.292,27.4,27.401c0,15.108-12.292,27.4-27.4,27.4c-15.109,0-27.401-12.292-27.401-27.4
			C60.477,116.056,72.769,103.764,87.878,103.764z M121.754,210.529v251.288h-20.801V349.4c0-5.522-4.478-10-10-10
			c-5.522,0-10,4.478-10,10v112.417h-20.8V249.033c0-5.523-4.477-10-10-10c-5.522,0-10,4.478-10,10v95.422
			C28.677,342.263,20,332.545,20,320.92v-74.478c0-37.427,31.539-67.877,70.306-67.877h183.773
			c-4.207,12.743-16.229,21.964-30.363,21.964H131.754C126.232,200.529,121.754,205.006,121.754,210.529z M396.327,461.816h-91.825
			l28.655-85.377h34.515L396.327,461.816z M492,346.648c0,5.399-4.393,9.792-9.792,9.792c0,0-156.05,0-156.072,0H211.965
			c-5.399,0-9.792-4.393-9.792-9.792v-58.509c0-5.522-4.478-10-10-10c-5.522,0-10,4.478-10,10v58.509
			c0,16.428,13.364,29.792,29.792,29.792H312.06l-28.655,85.377H141.754V220.53h101.962c28.653,0,51.965-23.311,51.965-51.964
			c0-5.523-4.478-10-10-10h-83.508v-50.36c0-5.399,4.393-9.792,9.792-9.792h270.243c5.399,0,9.792,4.393,9.792,9.792V346.648z"/>
	</g>
</g>
<g>
	<g>
		<path d="M433.137,215.288c-3.906-3.905-10.236-3.905-14.142-0.001l-42.835,42.835L360.538,242.5
			c-3.906-3.904-10.236-3.904-14.143,0l-55.214,55.214l-15.422-15.422c-1.876-1.875-4.419-2.929-7.071-2.929
			c-2.652,0-5.196,1.054-7.071,2.929l-28.686,28.687c-3.905,3.905-3.905,10.237,0,14.143c1.953,1.952,4.512,2.929,7.071,2.929
			c2.559,0,5.118-0.977,7.071-2.929l21.614-21.615l15.422,15.422c3.906,3.904,10.236,3.904,14.143,0l55.214-55.214l15.622,15.622
			c3.906,3.904,10.236,3.904,14.143,0l49.906-49.906C437.042,225.526,437.042,219.194,433.137,215.288z"/>
	</g>
</g>
<g>
</g>
<g>
</g>
<g>
</g>
<g>
</g>
<g>
</g>
<g>
</g>
<g>
</g>
<g>
</g>
<g>
</g>
<g>
</g>
<g>
</g>
<g>
</g>
<g>
</g>
<g>
</g>
<g>
</g>
</svg>
